<svg xmlns="http://www.w3.org/2000/svg" xmlns:xlink="http://www.w3.org/1999/xlink" width="500" zoomAndPan="magnify" viewBox="0 0 375 374.999991" height="500" preserveAspectRatio="xMidYMid meet" version="1.0"><defs><g/><clipPath id="a1c825c647"><path d="M 124 126 L 227 126 L 227 214 L 124 214 Z M 124 126 " clip-rule="nonzero"/></clipPath><clipPath id="1f1696925d"><path d="M 114.824219 199.039062 L 225.304688 124.097656 L 235.832031 139.617188 L 125.351562 214.558594 Z M 114.824219 199.039062 " clip-rule="nonzero"/></clipPath><clipPath id="7ac77c6986"><path d="M 114.824219 199.039062 L 227.789062 122.414062 L 238.3125 137.933594 L 125.351562 214.558594 Z M 114.824219 199.039062 " clip-rule="nonzero"/></clipPath></defs><rect x="-37.5" width="450" fill="#ffffff" y="-37.499999" height="449.999989" fill-opacity="1"/><rect x="-37.5" width="450" fill="#ffffff" y="-37.499999" height="449.999989" fill-opacity="1"/><g clip-path="url(#a1c825c647)"><g clip-path="url(#1f1696925d)"><g clip-path="url(#7ac77c6986)"><path fill="#000000" d="M 216.007812 131.316406 C 214.5 132.394531 212.980469 133.453125 211.496094 134.554688 C 209.886719 135.746094 208.300781 136.964844 206.726562 138.199219 C 205.4375 139.210938 204.179688 140.265625 202.90625 141.296875 C 201.75 142.234375 200.578125 143.15625 199.429688 144.105469 C 198.410156 144.941406 197.414062 145.8125 196.40625 146.660156 C 195.46875 147.449219 194.519531 148.226562 193.585938 149.019531 C 192.710938 149.761719 191.851562 150.523438 190.980469 151.277344 C 190.140625 152.003906 189.296875 152.726562 188.457031 153.457031 C 187.492188 154.300781 186.535156 155.152344 185.574219 156 C 184.785156 156.699219 183.996094 157.398438 183.210938 158.105469 C 181.882812 159.304688 180.558594 160.507812 179.230469 161.710938 C 178.15625 162.6875 177.082031 163.65625 176.011719 164.640625 C 174.804688 165.746094 173.601562 166.859375 172.398438 167.976562 C 171.046875 169.234375 169.695312 170.492188 168.351562 171.757812 C 167.132812 172.90625 165.917969 174.0625 164.707031 175.226562 C 163.15625 176.710938 161.605469 178.199219 160.066406 179.695312 C 157.988281 181.71875 155.914062 183.75 153.847656 185.785156 C 151.886719 187.714844 149.917969 189.636719 147.988281 191.597656 C 144.734375 194.902344 141.484375 198.210938 138.28125 201.5625 C 135.621094 204.339844 133.042969 207.195312 130.402344 209.992188 C 129.277344 211.1875 128.097656 212.328125 126.925781 213.472656 C 126.734375 213.664062 126.464844 213.816406 126.207031 213.890625 C 125.671875 214.046875 125.183594 213.898438 124.824219 213.46875 C 124.480469 213.058594 124.425781 212.570312 124.660156 212.089844 C 124.808594 211.785156 125 211.496094 125.214844 211.234375 C 126.910156 209.1875 128.613281 207.144531 130.320312 205.105469 C 130.722656 204.621094 131.242188 204.445312 131.84375 204.667969 C 132.085938 204.753906 132.21875 204.683594 132.386719 204.523438 C 135.15625 201.800781 137.933594 199.085938 140.703125 196.367188 C 143.316406 193.808594 145.917969 191.242188 148.53125 188.683594 C 150.632812 186.628906 152.738281 184.574219 154.851562 182.535156 C 156.425781 181.019531 158.023438 179.523438 159.609375 178.019531 C 161.085938 176.621094 162.558594 175.214844 164.046875 173.824219 C 165.617188 172.359375 167.207031 170.914062 168.785156 169.457031 C 170.390625 167.976562 171.992188 166.488281 173.605469 165.015625 C 174.734375 163.984375 175.882812 162.980469 177.019531 161.964844 C 178.214844 160.894531 179.398438 159.816406 180.597656 158.757812 C 181.613281 157.855469 182.644531 156.976562 183.667969 156.082031 C 184.730469 155.152344 185.785156 154.214844 186.855469 153.289062 C 187.722656 152.535156 188.605469 151.796875 189.480469 151.050781 C 190.410156 150.253906 191.339844 149.457031 192.273438 148.664062 C 192.980469 148.070312 193.691406 147.480469 194.402344 146.890625 C 195.230469 146.203125 196.054688 145.515625 196.882812 144.832031 C 197.671875 144.1875 198.464844 143.550781 199.257812 142.910156 C 200.179688 142.160156 201.101562 141.414062 202.027344 140.667969 C 202.558594 140.246094 203.09375 139.824219 203.632812 139.414062 C 204.335938 138.875 205.050781 138.347656 205.757812 137.8125 C 207.292969 136.648438 208.8125 135.46875 210.363281 134.328125 C 211.425781 133.542969 212.527344 132.808594 213.617188 132.0625 C 214.960938 131.144531 216.296875 130.214844 217.664062 129.339844 C 219.429688 128.214844 221.234375 127.148438 223.203125 126.40625 C 223.726562 126.210938 224.292969 126.097656 224.847656 126.03125 C 225.144531 126 225.472656 126.125 225.765625 126.230469 C 226 126.316406 226.125 126.535156 226.003906 126.785156 C 225.871094 127.058594 225.648438 127.011719 225.433594 126.875 C 225.058594 126.640625 224.65625 126.699219 224.285156 126.832031 C 223.484375 127.113281 222.671875 127.375 221.921875 127.761719 C 219.875 128.816406 217.910156 130.015625 216.007812 131.316406 Z M 216.007812 131.316406 " fill-opacity="1" fill-rule="nonzero"/></g></g></g><g fill="#000000" fill-opacity="1"><g transform="translate(109.572566, 184.678874)"><g><path d="M 3.421875 -42.640625 L 5.25 -42.640625 L 5.25 -16.765625 L 15.390625 -25.65625 L 17.734375 -25.65625 L 5.984375 -15.390625 L 20.6875 0 L 18.234375 0 L 5.25 -13.515625 L 5.25 0 L 3.421875 0 Z M 3.421875 -42.640625 "/></g></g></g><g fill="#000000" fill-opacity="1"><g transform="translate(131.684049, 184.678874)"><g><path d="M 18.40625 -22.171875 C 16.738281 -23.847656 14.894531 -24.6875 12.875 -24.6875 C 10.863281 -24.6875 9.085938 -23.925781 7.546875 -22.40625 C 6.015625 -20.882812 5.25 -19.113281 5.25 -17.09375 L 5.25 0 L 3.421875 0 L 3.421875 -25.65625 L 5.25 -25.65625 L 5.25 -21.828125 C 5.925781 -23.117188 6.988281 -24.179688 8.4375 -25.015625 C 9.882812 -25.859375 11.5 -26.28125 13.28125 -26.28125 C 15.0625 -26.28125 16.769531 -25.671875 18.40625 -24.453125 Z M 18.40625 -22.171875 "/></g></g></g><g fill="#000000" fill-opacity="1"><g transform="translate(151.515995, 184.678874)"><g><path d="M 16.25 0.6875 L 15.734375 0.6875 C 12.117188 0.6875 8.972656 -0.671875 6.296875 -3.390625 C 3.617188 -6.109375 2.28125 -9.269531 2.28125 -12.875 C 2.28125 -16.488281 3.609375 -19.613281 6.265625 -22.25 C 8.929688 -24.894531 12.21875 -26.21875 16.125 -26.21875 C 20.039062 -26.21875 23.40625 -24.660156 26.21875 -21.546875 L 8.328125 -3.875 C 10.796875 -1.894531 13.164062 -0.90625 15.4375 -0.90625 C 17.71875 -0.90625 19.757812 -1.425781 21.5625 -2.46875 C 23.375 -3.519531 24.867188 -4.921875 26.046875 -6.671875 L 26.046875 -3.765625 C 23.347656 -0.796875 20.082031 0.6875 16.25 0.6875 Z M 15.640625 -24.625 C 12.617188 -24.625 9.941406 -23.453125 7.609375 -21.109375 C 5.273438 -18.773438 4.109375 -16.085938 4.109375 -13.046875 C 4.109375 -10.015625 5.113281 -7.359375 7.125 -5.078125 L 23.71875 -21.546875 C 21.351562 -23.597656 18.660156 -24.625 15.640625 -24.625 Z M 15.640625 -24.625 "/></g></g></g><g fill="#000000" fill-opacity="1"><g transform="translate(179.725233, 184.678874)"><g><path d="M 9 -24.734375 C 8.019531 -24.734375 7.148438 -24.410156 6.390625 -23.765625 C 5.628906 -23.117188 5.25 -22.320312 5.25 -21.375 C 5.25 -20.425781 5.675781 -19.550781 6.53125 -18.75 C 7.382812 -17.957031 8.410156 -17.226562 9.609375 -16.5625 C 10.804688 -15.894531 12.007812 -15.179688 13.21875 -14.421875 C 14.4375 -13.660156 15.472656 -12.691406 16.328125 -11.515625 C 17.179688 -10.335938 17.609375 -8.988281 17.609375 -7.46875 C 17.609375 -5.226562 16.765625 -3.316406 15.078125 -1.734375 C 13.390625 -0.160156 11.347656 0.625 8.953125 0.625 C 7.429688 0.625 6.015625 0.289062 4.703125 -0.375 C 3.390625 -1.039062 2.429688 -1.921875 1.828125 -3.015625 L 1.828125 -5.75 C 3.265625 -2.5625 5.582031 -0.96875 8.78125 -0.96875 C 10.75 -0.96875 12.40625 -1.570312 13.75 -2.78125 C 15.101562 -4 15.78125 -5.359375 15.78125 -6.859375 C 15.78125 -8.367188 15.351562 -9.632812 14.5 -10.65625 C 13.644531 -11.6875 12.609375 -12.5625 11.390625 -13.28125 C 10.179688 -14 8.976562 -14.707031 7.78125 -15.40625 C 6.582031 -16.113281 5.554688 -16.972656 4.703125 -17.984375 C 3.847656 -18.992188 3.421875 -20.171875 3.421875 -21.515625 C 3.421875 -22.867188 3.960938 -24.007812 5.046875 -24.9375 C 6.128906 -25.863281 7.523438 -26.328125 9.234375 -26.328125 C 10.941406 -26.328125 12.40625 -25.664062 13.625 -24.34375 L 13.625 -22 C 12.40625 -23.820312 10.863281 -24.734375 9 -24.734375 Z M 9 -24.734375 "/></g></g></g><g fill="#000000" fill-opacity="1"><g transform="translate(199.329224, 184.678874)"><g><path d="M 3.421875 -42.640625 L 5.25 -42.640625 L 5.25 -16.765625 L 15.390625 -25.65625 L 17.734375 -25.65625 L 5.984375 -15.390625 L 20.6875 0 L 18.234375 0 L 5.25 -13.515625 L 5.25 0 L 3.421875 0 Z M 3.421875 -42.640625 "/></g></g></g><g fill="#000000" fill-opacity="1"><g transform="translate(221.440707, 184.678874)"><g><path d="M 29.015625 -25.65625 L 29.015625 0 L 27.1875 0 L 27.1875 -6.390625 C 26.125 -4.222656 24.523438 -2.507812 22.390625 -1.25 C 20.265625 0 17.988281 0.625 15.5625 0.625 C 11.832031 0.625 8.640625 -0.691406 5.984375 -3.328125 C 3.328125 -5.972656 2 -9.140625 2 -12.828125 C 2 -16.515625 3.328125 -19.675781 5.984375 -22.3125 C 8.640625 -24.957031 11.832031 -26.28125 15.5625 -26.28125 C 17.988281 -26.28125 20.3125 -25.632812 22.53125 -24.34375 C 24.757812 -23.050781 26.3125 -21.335938 27.1875 -19.203125 L 27.1875 -25.65625 Z M 3.8125 -12.765625 C 3.8125 -9.578125 4.976562 -6.8125 7.3125 -4.46875 C 9.65625 -2.132812 12.429688 -0.96875 15.640625 -0.96875 C 18.859375 -0.96875 21.601562 -2.132812 23.875 -4.46875 C 26.15625 -6.8125 27.296875 -9.585938 27.296875 -12.796875 C 27.296875 -16.003906 26.144531 -18.785156 23.84375 -21.140625 C 21.550781 -23.503906 18.804688 -24.6875 15.609375 -24.6875 C 12.421875 -24.6875 9.65625 -23.5 7.3125 -21.125 C 4.976562 -18.75 3.8125 -15.960938 3.8125 -12.765625 Z M 3.8125 -12.765625 "/></g></g></g></svg>