<svg xmlns="http://www.w3.org/2000/svg" xmlns:xlink="http://www.w3.org/1999/xlink" width="500" zoomAndPan="magnify" viewBox="0 0 375 374.999991" height="500" preserveAspectRatio="xMidYMid meet" version="1.0"><defs><g/><clipPath id="3b1685c0e2"><path d="M 144 124 L 220 124 L 220 190 L 144 190 Z M 144 124 " clip-rule="nonzero"/></clipPath><clipPath id="6bcad68262"><path d="M 136.902344 178.875 L 218.832031 123.300781 L 226.832031 135.09375 L 144.898438 190.667969 Z M 136.902344 178.875 " clip-rule="nonzero"/></clipPath><clipPath id="abdae69ee0"><path d="M 136.902344 178.875 L 220.691406 122.039062 L 228.691406 133.832031 L 144.898438 190.667969 Z M 136.902344 178.875 " clip-rule="nonzero"/></clipPath></defs><rect x="-37.5" width="450" fill="#ffffff" y="-37.499999" height="449.999989" fill-opacity="1"/><rect x="-37.5" width="450" fill="#ffffff" y="-37.499999" height="449.999989" fill-opacity="1"/><g clip-path="url(#3b1685c0e2)"><g clip-path="url(#6bcad68262)"><g clip-path="url(#abdae69ee0)"><path fill="#000000" d="M 212.058594 128.570312 C 210.941406 129.371094 209.8125 130.15625 208.707031 130.976562 C 207.515625 131.859375 206.335938 132.765625 205.167969 133.683594 C 204.207031 134.433594 203.273438 135.21875 202.328125 135.988281 C 201.46875 136.683594 200.597656 137.367188 199.742188 138.070312 C 198.988281 138.695312 198.25 139.339844 197.5 139.96875 C 196.800781 140.554688 196.097656 141.132812 195.402344 141.722656 C 194.753906 142.277344 194.113281 142.839844 193.46875 143.402344 C 192.84375 143.941406 192.214844 144.476562 191.59375 145.019531 C 190.875 145.648438 190.164062 146.277344 189.453125 146.910156 C 188.863281 147.429688 188.277344 147.949219 187.695312 148.472656 C 186.707031 149.363281 185.722656 150.257812 184.738281 151.152344 C 183.9375 151.875 183.140625 152.597656 182.34375 153.328125 C 181.449219 154.152344 180.554688 154.976562 179.660156 155.808594 C 178.65625 156.742188 177.652344 157.675781 176.65625 158.617188 C 175.746094 159.472656 174.847656 160.332031 173.945312 161.191406 C 172.792969 162.296875 171.644531 163.402344 170.5 164.515625 C 168.953125 166.019531 167.414062 167.527344 165.875 169.039062 C 164.421875 170.472656 162.957031 171.902344 161.523438 173.359375 C 159.105469 175.8125 156.691406 178.269531 154.3125 180.761719 C 152.335938 182.824219 150.417969 184.945312 148.460938 187.023438 C 147.625 187.910156 146.746094 188.757812 145.875 189.613281 C 145.734375 189.753906 145.535156 189.863281 145.339844 189.921875 C 144.945312 190.035156 144.582031 189.925781 144.316406 189.609375 C 144.058594 189.300781 144.015625 188.941406 144.191406 188.582031 C 144.300781 188.355469 144.445312 188.140625 144.605469 187.949219 C 145.863281 186.425781 147.128906 184.90625 148.398438 183.394531 C 148.695312 183.035156 149.082031 182.902344 149.527344 183.066406 C 149.707031 183.132812 149.808594 183.082031 149.933594 182.960938 C 151.988281 180.9375 154.054688 178.921875 156.113281 176.902344 C 158.050781 175 159.984375 173.09375 161.929688 171.191406 C 163.488281 169.664062 165.050781 168.140625 166.625 166.625 C 167.792969 165.496094 168.980469 164.386719 170.160156 163.269531 C 171.257812 162.230469 172.347656 161.183594 173.453125 160.152344 C 174.621094 159.066406 175.800781 157.992188 176.976562 156.910156 C 178.167969 155.808594 179.359375 154.699219 180.558594 153.605469 C 181.394531 152.84375 182.25 152.097656 183.09375 151.339844 C 183.980469 150.546875 184.863281 149.746094 185.753906 148.957031 C 186.507812 148.289062 187.273438 147.632812 188.03125 146.972656 C 188.824219 146.28125 189.609375 145.582031 190.402344 144.894531 C 191.046875 144.335938 191.703125 143.785156 192.351562 143.230469 C 193.042969 142.640625 193.734375 142.046875 194.429688 141.460938 C 194.953125 141.015625 195.480469 140.578125 196.007812 140.140625 C 196.625 139.628906 197.238281 139.117188 197.851562 138.613281 C 198.4375 138.132812 199.027344 137.660156 199.617188 137.183594 C 200.300781 136.628906 200.988281 136.070312 201.675781 135.519531 C 202.070312 135.203125 202.464844 134.890625 202.867188 134.585938 C 203.390625 134.183594 203.921875 133.792969 204.445312 133.394531 C 205.585938 132.53125 206.714844 131.65625 207.867188 130.808594 C 208.660156 130.226562 209.476562 129.675781 210.285156 129.125 C 211.285156 128.441406 212.277344 127.753906 213.292969 127.101562 C 214.605469 126.265625 215.945312 125.472656 217.40625 124.921875 C 217.796875 124.777344 218.214844 124.691406 218.628906 124.644531 C 218.851562 124.621094 219.09375 124.714844 219.3125 124.792969 C 219.484375 124.855469 219.578125 125.015625 219.488281 125.203125 C 219.390625 125.40625 219.226562 125.371094 219.0625 125.269531 C 218.785156 125.09375 218.488281 125.140625 218.210938 125.238281 C 217.617188 125.445312 217.011719 125.640625 216.457031 125.929688 C 214.9375 126.714844 213.476562 127.605469 212.058594 128.570312 Z M 212.058594 128.570312 " fill-opacity="1" fill-rule="nonzero"/></g></g></g><g fill="#000000" fill-opacity="1"><g transform="translate(123.49444, 173.778855)"><g><path d="M 2.765625 -34.40625 L 4.234375 -34.40625 L 4.234375 -13.53125 L 12.421875 -20.703125 L 14.3125 -20.703125 L 4.828125 -12.421875 L 16.703125 0 L 14.71875 0 L 4.234375 -10.90625 L 4.234375 0 L 2.765625 0 Z M 2.765625 -34.40625 "/></g></g></g><g fill="#000000" fill-opacity="1"><g transform="translate(141.340939, 173.778855)"><g><path d="M 14.859375 -17.890625 C 13.503906 -19.242188 12.015625 -19.921875 10.390625 -19.921875 C 8.765625 -19.921875 7.332031 -19.304688 6.09375 -18.078125 C 4.851562 -16.847656 4.234375 -15.421875 4.234375 -13.796875 L 4.234375 0 L 2.765625 0 L 2.765625 -20.703125 L 4.234375 -20.703125 L 4.234375 -17.625 C 4.785156 -18.664062 5.644531 -19.519531 6.8125 -20.1875 C 7.976562 -20.863281 9.28125 -21.203125 10.71875 -21.203125 C 12.15625 -21.203125 13.535156 -20.710938 14.859375 -19.734375 Z M 14.859375 -17.890625 "/></g></g></g><g fill="#000000" fill-opacity="1"><g transform="translate(157.347595, 173.778855)"><g><path d="M 13.109375 0.546875 L 12.703125 0.546875 C 9.785156 0.546875 7.242188 -0.546875 5.078125 -2.734375 C 2.921875 -4.929688 1.84375 -7.484375 1.84375 -10.390625 C 1.84375 -13.304688 2.914062 -15.828125 5.0625 -17.953125 C 7.207031 -20.085938 9.859375 -21.15625 13.015625 -21.15625 C 16.171875 -21.15625 18.882812 -19.898438 21.15625 -17.390625 L 6.71875 -3.125 C 8.707031 -1.53125 10.617188 -0.734375 12.453125 -0.734375 C 14.296875 -0.734375 15.945312 -1.15625 17.40625 -2 C 18.863281 -2.84375 20.066406 -3.96875 21.015625 -5.375 L 21.015625 -3.03125 C 18.835938 -0.644531 16.203125 0.546875 13.109375 0.546875 Z M 12.625 -19.875 C 10.1875 -19.875 8.023438 -18.929688 6.140625 -17.046875 C 4.253906 -15.160156 3.3125 -12.988281 3.3125 -10.53125 C 3.3125 -8.082031 4.125 -5.9375 5.75 -4.09375 L 19.140625 -17.390625 C 17.234375 -19.046875 15.0625 -19.875 12.625 -19.875 Z M 12.625 -19.875 "/></g></g></g><g fill="#000000" fill-opacity="1"><g transform="translate(180.115682, 173.778855)"><g><path d="M 7.265625 -19.96875 C 6.472656 -19.96875 5.769531 -19.707031 5.15625 -19.1875 C 4.539062 -18.664062 4.234375 -18.019531 4.234375 -17.25 C 4.234375 -16.476562 4.578125 -15.769531 5.265625 -15.125 C 5.953125 -14.488281 6.78125 -13.898438 7.75 -13.359375 C 8.71875 -12.828125 9.691406 -12.253906 10.671875 -11.640625 C 11.648438 -11.023438 12.484375 -10.238281 13.171875 -9.28125 C 13.867188 -8.332031 14.21875 -7.25 14.21875 -6.03125 C 14.21875 -4.21875 13.535156 -2.675781 12.171875 -1.40625 C 10.804688 -0.132812 9.15625 0.5 7.21875 0.5 C 5.988281 0.5 4.84375 0.234375 3.78125 -0.296875 C 2.726562 -0.835938 1.957031 -1.550781 1.46875 -2.4375 L 1.46875 -4.640625 C 2.632812 -2.066406 4.503906 -0.78125 7.078125 -0.78125 C 8.671875 -0.78125 10.007812 -1.269531 11.09375 -2.25 C 12.1875 -3.226562 12.734375 -4.320312 12.734375 -5.53125 C 12.734375 -6.75 12.390625 -7.769531 11.703125 -8.59375 C 11.015625 -9.425781 10.179688 -10.132812 9.203125 -10.71875 C 8.222656 -11.300781 7.25 -11.875 6.28125 -12.4375 C 5.3125 -13.007812 4.484375 -13.703125 3.796875 -14.515625 C 3.109375 -15.328125 2.765625 -16.273438 2.765625 -17.359375 C 2.765625 -18.453125 3.195312 -19.375 4.0625 -20.125 C 4.9375 -20.875 6.0625 -21.25 7.4375 -21.25 C 8.820312 -21.25 10.007812 -20.710938 11 -19.640625 L 11 -17.75 C 10.007812 -19.226562 8.765625 -19.96875 7.265625 -19.96875 Z M 7.265625 -19.96875 "/></g></g></g><g fill="#000000" fill-opacity="1"><g transform="translate(195.938351, 173.778855)"><g><path d="M 2.765625 -34.40625 L 4.234375 -34.40625 L 4.234375 -13.53125 L 12.421875 -20.703125 L 14.3125 -20.703125 L 4.828125 -12.421875 L 16.703125 0 L 14.71875 0 L 4.234375 -10.90625 L 4.234375 0 L 2.765625 0 Z M 2.765625 -34.40625 "/></g></g></g><g fill="#000000" fill-opacity="1"><g transform="translate(213.78485, 173.778855)"><g><path d="M 23.40625 -20.703125 L 23.40625 0 L 21.9375 0 L 21.9375 -5.15625 C 21.082031 -3.40625 19.796875 -2.023438 18.078125 -1.015625 C 16.359375 -0.00390625 14.519531 0.5 12.5625 0.5 C 9.550781 0.5 6.972656 -0.5625 4.828125 -2.6875 C 2.679688 -4.820312 1.609375 -7.375 1.609375 -10.34375 C 1.609375 -13.320312 2.679688 -15.875 4.828125 -18 C 6.972656 -20.132812 9.550781 -21.203125 12.5625 -21.203125 C 14.519531 -21.203125 16.394531 -20.679688 18.1875 -19.640625 C 19.988281 -18.597656 21.238281 -17.21875 21.9375 -15.5 L 21.9375 -20.703125 Z M 3.078125 -10.296875 C 3.078125 -7.722656 4.019531 -5.492188 5.90625 -3.609375 C 7.789062 -1.722656 10.03125 -0.78125 12.625 -0.78125 C 15.21875 -0.78125 17.429688 -1.722656 19.265625 -3.609375 C 21.109375 -5.492188 22.03125 -7.734375 22.03125 -10.328125 C 22.03125 -12.921875 21.101562 -15.164062 19.25 -17.0625 C 17.394531 -18.96875 15.175781 -19.921875 12.59375 -19.921875 C 10.019531 -19.921875 7.789062 -18.960938 5.90625 -17.046875 C 4.019531 -15.128906 3.078125 -12.878906 3.078125 -10.296875 Z M 3.078125 -10.296875 "/></g></g></g><g fill="#000000" fill-opacity="1"><g transform="translate(116.84405, 200.999869)"><g><path d="M 1.109375 -11.25 L 1.609375 -11.25 C 2.648438 -11.25 3.535156 -10.890625 4.265625 -10.171875 C 4.992188 -9.460938 5.359375 -8.617188 5.359375 -7.640625 C 5.359375 -6.671875 4.976562 -5.835938 4.21875 -5.140625 C 3.46875 -4.441406 2.632812 -4.09375 1.71875 -4.09375 L 1.609375 -4.09375 L 1.609375 0 L 1.109375 0 Z M 1.609375 -4.515625 L 1.71875 -4.515625 C 2.5625 -4.515625 3.296875 -4.820312 3.921875 -5.4375 C 4.546875 -6.0625 4.859375 -6.796875 4.859375 -7.640625 C 4.859375 -8.492188 4.539062 -9.234375 3.90625 -9.859375 C 3.269531 -10.492188 2.539062 -10.8125 1.71875 -10.8125 L 1.609375 -10.8125 Z M 1.609375 -4.515625 "/></g></g></g><g fill="#000000" fill-opacity="1"><g transform="translate(122.69404, 200.999869)"><g><path d="M 4.84375 -5.828125 C 4.40625 -6.273438 3.921875 -6.5 3.390625 -6.5 C 2.859375 -6.5 2.390625 -6.296875 1.984375 -5.890625 C 1.578125 -5.492188 1.375 -5.03125 1.375 -4.5 L 1.375 0 L 0.90625 0 L 0.90625 -6.75 L 1.375 -6.75 L 1.375 -5.75 C 1.5625 -6.082031 1.84375 -6.359375 2.21875 -6.578125 C 2.601562 -6.804688 3.03125 -6.921875 3.5 -6.921875 C 3.96875 -6.921875 4.414062 -6.757812 4.84375 -6.4375 Z M 4.84375 -5.828125 "/></g></g></g><g fill="#000000" fill-opacity="1"><g transform="translate(127.914033, 200.999869)"><g><path d="M 4.03125 0.171875 C 3.070312 0.171875 2.25 -0.1875 1.5625 -0.90625 C 0.875 -1.625 0.53125 -2.457031 0.53125 -3.40625 C 0.53125 -4.351562 0.878906 -5.175781 1.578125 -5.875 C 2.273438 -6.570312 3.113281 -6.921875 4.09375 -6.921875 C 5.082031 -6.921875 5.925781 -6.570312 6.625 -5.875 C 7.320312 -5.175781 7.671875 -4.347656 7.671875 -3.390625 C 7.671875 -2.441406 7.328125 -1.609375 6.640625 -0.890625 C 5.960938 -0.179688 5.140625 0.171875 4.171875 0.171875 Z M 7.1875 -3.359375 C 7.1875 -4.210938 6.882812 -4.945312 6.28125 -5.5625 C 5.675781 -6.1875 4.953125 -6.5 4.109375 -6.5 C 3.265625 -6.5 2.535156 -6.1875 1.921875 -5.5625 C 1.304688 -4.9375 1 -4.203125 1 -3.359375 C 1 -2.515625 1.304688 -1.785156 1.921875 -1.171875 C 2.535156 -0.554688 3.265625 -0.25 4.109375 -0.25 C 4.960938 -0.25 5.6875 -0.554688 6.28125 -1.171875 C 6.882812 -1.785156 7.1875 -2.515625 7.1875 -3.359375 Z M 7.1875 -3.359375 "/></g></g></g><g fill="#000000" fill-opacity="1"><g transform="translate(136.10402, 200.999869)"><g><path d="M -0.078125 2.96875 L -0.078125 2.546875 C 0.515625 2.546875 1.015625 2.34375 1.421875 1.9375 C 1.835938 1.539062 2.046875 1.039062 2.046875 0.4375 L 2.046875 -6.75 L 2.515625 -6.75 L 2.515625 0.4375 C 2.515625 1.175781 2.257812 1.78125 1.75 2.25 C 1.25 2.726562 0.640625 2.96875 -0.078125 2.96875 Z M 2.296875 -8.390625 C 2.003906 -8.390625 1.859375 -8.519531 1.859375 -8.78125 C 1.859375 -9.050781 2.003906 -9.1875 2.296875 -9.1875 C 2.585938 -9.1875 2.734375 -9.050781 2.734375 -8.78125 C 2.734375 -8.519531 2.585938 -8.390625 2.296875 -8.390625 Z M 2.296875 -8.390625 "/></g></g></g><g fill="#000000" fill-opacity="1"><g transform="translate(139.734017, 200.999869)"><g><path d="M 4.28125 0.1875 L 4.140625 0.1875 C 3.191406 0.1875 2.363281 -0.171875 1.65625 -0.890625 C 0.945312 -1.609375 0.59375 -2.441406 0.59375 -3.390625 C 0.59375 -4.335938 0.941406 -5.160156 1.640625 -5.859375 C 2.347656 -6.554688 3.21875 -6.90625 4.25 -6.90625 C 5.28125 -6.90625 6.164062 -6.492188 6.90625 -5.671875 L 2.1875 -1.015625 C 2.84375 -0.492188 3.46875 -0.234375 4.0625 -0.234375 C 4.664062 -0.234375 5.203125 -0.367188 5.671875 -0.640625 C 6.148438 -0.921875 6.546875 -1.289062 6.859375 -1.75 L 6.859375 -0.984375 C 6.148438 -0.203125 5.289062 0.1875 4.28125 0.1875 Z M 4.109375 -6.484375 C 3.316406 -6.484375 2.613281 -6.175781 2 -5.5625 C 1.382812 -4.945312 1.078125 -4.238281 1.078125 -3.4375 C 1.078125 -2.632812 1.34375 -1.929688 1.875 -1.328125 L 6.234375 -5.671875 C 5.617188 -6.210938 4.910156 -6.484375 4.109375 -6.484375 Z M 4.109375 -6.484375 "/></g></g></g><g fill="#000000" fill-opacity="1"><g transform="translate(147.159012, 200.999869)"><g><path d="M 0.90625 -11.21875 L 1.375 -11.21875 L 1.375 -4.40625 L 4.046875 -6.75 L 4.671875 -6.75 L 1.578125 -4.046875 L 5.4375 0 L 4.796875 0 L 1.375 -3.5625 L 1.375 0 L 0.90625 0 Z M 0.90625 -11.21875 "/></g></g></g><g fill="#000000" fill-opacity="1"><g transform="translate(152.979007, 200.999869)"><g><path d="M 3.3125 -0.328125 L 3.3125 0.09375 C 2.601562 0.09375 2 -0.140625 1.5 -0.609375 C 1 -1.085938 0.75 -1.695312 0.75 -2.4375 L 0.75 -9.46875 L 1.234375 -9.46875 L 1.234375 -6.734375 L 3.296875 -6.734375 L 3.296875 -6.3125 L 1.234375 -6.3125 L 1.234375 -2.4375 C 1.234375 -1.832031 1.429688 -1.328125 1.828125 -0.921875 C 2.234375 -0.523438 2.726562 -0.328125 3.3125 -0.328125 Z M 3.3125 -0.328125 "/></g></g></g><g fill="#000000" fill-opacity="1"><g transform="translate(156.594001, 200.999869)"><g><path d="M 4.03125 0.171875 C 3.070312 0.171875 2.25 -0.1875 1.5625 -0.90625 C 0.875 -1.625 0.53125 -2.457031 0.53125 -3.40625 C 0.53125 -4.351562 0.878906 -5.175781 1.578125 -5.875 C 2.273438 -6.570312 3.113281 -6.921875 4.09375 -6.921875 C 5.082031 -6.921875 5.925781 -6.570312 6.625 -5.875 C 7.320312 -5.175781 7.671875 -4.347656 7.671875 -3.390625 C 7.671875 -2.441406 7.328125 -1.609375 6.640625 -0.890625 C 5.960938 -0.179688 5.140625 0.171875 4.171875 0.171875 Z M 7.1875 -3.359375 C 7.1875 -4.210938 6.882812 -4.945312 6.28125 -5.5625 C 5.675781 -6.1875 4.953125 -6.5 4.109375 -6.5 C 3.265625 -6.5 2.535156 -6.1875 1.921875 -5.5625 C 1.304688 -4.9375 1 -4.203125 1 -3.359375 C 1 -2.515625 1.304688 -1.785156 1.921875 -1.171875 C 2.535156 -0.554688 3.265625 -0.25 4.109375 -0.25 C 4.960938 -0.25 5.6875 -0.554688 6.28125 -1.171875 C 6.882812 -1.785156 7.1875 -2.515625 7.1875 -3.359375 Z M 7.1875 -3.359375 "/></g></g></g><g fill="#000000" fill-opacity="1"><g transform="translate(164.783988, 200.999869)"><g><path d="M 0.375 -6.75 L 0.875 -6.75 L 3.640625 -0.859375 L 4.953125 -3.59375 L 3.5 -6.71875 L 3.96875 -6.71875 L 5.1875 -4.0625 L 6.4375 -6.75 L 6.890625 -6.75 L 5.421875 -3.59375 L 6.703125 -0.828125 L 9.453125 -6.734375 L 9.890625 -6.734375 L 6.6875 0.171875 L 5.15625 -3.125 L 3.609375 0.171875 Z M 0.375 -6.75 "/></g></g></g><g fill="#000000" fill-opacity="1"><g transform="translate(175.043982, 200.999869)"><g><path d="M 7.640625 -6.75 L 7.640625 0 L 7.15625 0 L 7.15625 -1.6875 C 6.875 -1.113281 6.453125 -0.660156 5.890625 -0.328125 C 5.335938 0.00390625 4.738281 0.171875 4.09375 0.171875 C 3.113281 0.171875 2.273438 -0.175781 1.578125 -0.875 C 0.878906 -1.570312 0.53125 -2.40625 0.53125 -3.375 C 0.53125 -4.34375 0.878906 -5.175781 1.578125 -5.875 C 2.273438 -6.570312 3.113281 -6.921875 4.09375 -6.921875 C 4.738281 -6.921875 5.351562 -6.75 5.9375 -6.40625 C 6.519531 -6.0625 6.925781 -5.613281 7.15625 -5.0625 L 7.15625 -6.75 Z M 1 -3.359375 C 1 -2.515625 1.304688 -1.785156 1.921875 -1.171875 C 2.535156 -0.554688 3.265625 -0.25 4.109375 -0.25 C 4.960938 -0.25 5.6875 -0.554688 6.28125 -1.171875 C 6.882812 -1.785156 7.1875 -2.515625 7.1875 -3.359375 C 7.1875 -4.210938 6.882812 -4.945312 6.28125 -5.5625 C 5.675781 -6.1875 4.953125 -6.5 4.109375 -6.5 C 3.265625 -6.5 2.535156 -6.1875 1.921875 -5.5625 C 1.304688 -4.9375 1 -4.203125 1 -3.359375 Z M 1 -3.359375 "/></g></g></g><g fill="#000000" fill-opacity="1"><g transform="translate(183.578973, 200.999869)"><g><path d="M 1.375 0 L 0.90625 0 L 0.90625 -6.75 L 1.375 -6.75 L 1.375 -5.390625 C 1.882812 -6.410156 2.753906 -6.921875 3.984375 -6.921875 C 4.828125 -6.921875 5.53125 -6.628906 6.09375 -6.046875 C 6.664062 -5.460938 6.953125 -4.757812 6.953125 -3.9375 L 6.953125 0 L 6.484375 0 L 6.484375 -3.9375 C 6.484375 -4.625 6.238281 -5.222656 5.75 -5.734375 C 5.269531 -6.242188 4.679688 -6.5 3.984375 -6.5 C 3.296875 -6.5 2.6875 -6.242188 2.15625 -5.734375 C 1.632812 -5.222656 1.375 -4.625 1.375 -3.9375 Z M 1.375 0 "/></g></g></g><g fill="#000000" fill-opacity="1"><g transform="translate(191.43897, 200.999869)"><g><path d="M 1.578125 -6.734375 L 1.578125 0 L 1.09375 0 L 1.09375 -6.734375 Z M 1.328125 -8.390625 C 1.046875 -8.390625 0.90625 -8.519531 0.90625 -8.78125 C 0.90625 -9.050781 1.046875 -9.1875 1.328125 -9.1875 C 1.617188 -9.1875 1.765625 -9.050781 1.765625 -8.78125 C 1.765625 -8.519531 1.617188 -8.390625 1.328125 -8.390625 Z M 1.328125 -8.390625 "/></g></g></g><g fill="#000000" fill-opacity="1"><g transform="translate(194.108968, 200.999869)"><g><path d="M 4.28125 0.1875 L 4.140625 0.1875 C 3.191406 0.1875 2.363281 -0.171875 1.65625 -0.890625 C 0.945312 -1.609375 0.59375 -2.441406 0.59375 -3.390625 C 0.59375 -4.335938 0.941406 -5.160156 1.640625 -5.859375 C 2.347656 -6.554688 3.21875 -6.90625 4.25 -6.90625 C 5.28125 -6.90625 6.164062 -6.492188 6.90625 -5.671875 L 2.1875 -1.015625 C 2.84375 -0.492188 3.46875 -0.234375 4.0625 -0.234375 C 4.664062 -0.234375 5.203125 -0.367188 5.671875 -0.640625 C 6.148438 -0.921875 6.546875 -1.289062 6.859375 -1.75 L 6.859375 -0.984375 C 6.148438 -0.203125 5.289062 0.1875 4.28125 0.1875 Z M 4.109375 -6.484375 C 3.316406 -6.484375 2.613281 -6.175781 2 -5.5625 C 1.382812 -4.945312 1.078125 -4.238281 1.078125 -3.4375 C 1.078125 -2.632812 1.34375 -1.929688 1.875 -1.328125 L 6.234375 -5.671875 C 5.617188 -6.210938 4.910156 -6.484375 4.109375 -6.484375 Z M 4.109375 -6.484375 "/></g></g></g><g fill="#000000" fill-opacity="1"><g transform="translate(201.533963, 200.999869)"><g/></g><g transform="translate(206.783962, 200.999869)"><g><path d="M 0.375 -6.75 L 0.875 -6.75 L 3.640625 -0.859375 L 4.953125 -3.59375 L 3.5 -6.71875 L 3.96875 -6.71875 L 5.1875 -4.0625 L 6.4375 -6.75 L 6.890625 -6.75 L 5.421875 -3.59375 L 6.703125 -0.828125 L 9.453125 -6.734375 L 9.890625 -6.734375 L 6.6875 0.171875 L 5.15625 -3.125 L 3.609375 0.171875 Z M 0.375 -6.75 "/></g></g></g><g fill="#000000" fill-opacity="1"><g transform="translate(217.043956, 200.999869)"><g><path d="M 1.375 0 L 0.90625 0 L 0.90625 -6.75 L 1.375 -6.75 L 1.375 -5.390625 C 1.882812 -6.410156 2.753906 -6.921875 3.984375 -6.921875 C 4.828125 -6.921875 5.53125 -6.628906 6.09375 -6.046875 C 6.664062 -5.460938 6.953125 -4.757812 6.953125 -3.9375 L 6.953125 0 L 6.484375 0 L 6.484375 -3.9375 C 6.484375 -4.625 6.238281 -5.222656 5.75 -5.734375 C 5.269531 -6.242188 4.679688 -6.5 3.984375 -6.5 C 3.296875 -6.5 2.6875 -6.242188 2.15625 -5.734375 C 1.632812 -5.222656 1.375 -4.625 1.375 -3.9375 Z M 1.375 0 "/></g></g></g><g fill="#000000" fill-opacity="1"><g transform="translate(224.903953, 200.999869)"><g><path d="M 4.34375 0.1875 L 4.140625 0.1875 C 3.191406 0.1875 2.363281 -0.171875 1.65625 -0.890625 C 0.945312 -1.609375 0.59375 -2.441406 0.59375 -3.390625 C 0.59375 -4.335938 0.941406 -5.160156 1.640625 -5.859375 C 2.347656 -6.554688 3.21875 -6.90625 4.25 -6.90625 C 5.28125 -6.90625 6.164062 -6.492188 6.90625 -5.671875 L 2.1875 -1.015625 C 2.84375 -0.492188 3.46875 -0.234375 4.0625 -0.234375 C 4.664062 -0.234375 5.203125 -0.367188 5.671875 -0.640625 C 6.148438 -0.921875 6.546875 -1.289062 6.859375 -1.75 L 6.859375 -0.984375 C 6.285156 -0.347656 5.597656 0.0234375 4.796875 0.140625 L 3.59375 1.875 C 3.59375 2.082031 3.660156 2.257812 3.796875 2.40625 C 3.929688 2.550781 4.113281 2.625 4.34375 2.625 L 4.921875 2.625 L 4.921875 3 L 4.3125 3 C 3.988281 3 3.71875 2.898438 3.5 2.703125 C 3.289062 2.503906 3.1875 2.253906 3.1875 1.953125 L 3.1875 1.84375 Z M 4.109375 -6.484375 C 3.316406 -6.484375 2.613281 -6.175781 2 -5.5625 C 1.382812 -4.945312 1.078125 -4.238281 1.078125 -3.4375 C 1.078125 -2.632812 1.34375 -1.929688 1.875 -1.328125 L 6.234375 -5.671875 C 5.617188 -6.210938 4.910156 -6.484375 4.109375 -6.484375 Z M 4.109375 -6.484375 "/></g></g></g><g fill="#000000" fill-opacity="1"><g transform="translate(232.328948, 200.999869)"><g><path d="M 3.3125 -0.328125 L 3.3125 0.09375 C 2.601562 0.09375 2 -0.140625 1.5 -0.609375 C 1 -1.085938 0.75 -1.695312 0.75 -2.4375 L 0.75 -9.46875 L 1.234375 -9.46875 L 1.234375 -6.734375 L 3.296875 -6.734375 L 3.296875 -6.3125 L 1.234375 -6.3125 L 1.234375 -2.4375 C 1.234375 -1.832031 1.429688 -1.328125 1.828125 -0.921875 C 2.234375 -0.523438 2.726562 -0.328125 3.3125 -0.328125 Z M 3.3125 -0.328125 "/></g></g></g><g fill="#000000" fill-opacity="1"><g transform="translate(235.943941, 200.999869)"><g><path d="M 4.84375 -5.828125 C 4.40625 -6.273438 3.921875 -6.5 3.390625 -6.5 C 2.859375 -6.5 2.390625 -6.296875 1.984375 -5.890625 C 1.578125 -5.492188 1.375 -5.03125 1.375 -4.5 L 1.375 0 L 0.90625 0 L 0.90625 -6.75 L 1.375 -6.75 L 1.375 -5.75 C 1.5625 -6.082031 1.84375 -6.359375 2.21875 -6.578125 C 2.601562 -6.804688 3.03125 -6.921875 3.5 -6.921875 C 3.96875 -6.921875 4.414062 -6.757812 4.84375 -6.4375 Z M 4.84375 -5.828125 "/></g></g></g><g fill="#000000" fill-opacity="1"><g transform="translate(241.163935, 200.999869)"><g><path d="M 5.03125 -0.421875 L 5.03125 0 L 0.375 0 L 4.21875 -6.328125 L 0.78125 -6.328125 L 0.78125 -6.75 L 5.0625 -6.75 L 1.21875 -0.421875 Z M 5.03125 -0.421875 "/></g></g></g></svg>