<?xml version="1.0" encoding="UTF-8" standalone="no"?><!DOCTYPE svg PUBLIC "-//W3C//DTD SVG 1.1//EN" "http://www.w3.org/Graphics/SVG/1.1/DTD/svg11.dtd"><svg width="100%" height="100%" viewBox="0 0 150 150" version="1.1" xmlns="http://www.w3.org/2000/svg" xmlns:xlink="http://www.w3.org/1999/xlink" xml:space="preserve" xmlns:serif="http://www.serif.com/" style="fill-rule:evenodd;clip-rule:evenodd;stroke-linejoin:round;stroke-miterlimit:2;"><g><g><g><g><path d="M70.759,17.905l3.776,0l0,53.929l21.107,-18.493l4.938,0l-24.496,21.397l30.596,32.048l-5.035,-0l-27.11,-28.175l0,28.175l-3.776,-0l0,-88.881Z" style="fill:#fff;fill-rule:nonzero;"/></g></g></g><g><clipPath id="_clip1"><rect x="-5.743" y="13.637" width="162.665" height="125.484"/></clipPath><g clip-path="url(#_clip1)"><g><clipPath id="_clip2"><path d="M-18.747,105.733l243.05,-146.708l20.583,34.094l-243.05,146.734l-20.583,-34.12Z"/></clipPath><g clip-path="url(#_clip2)"><g><clipPath id="_clip3"><path d="M-18.747,105.733l251.567,-151.861l20.583,34.121l-251.567,151.86l-20.583,-34.12Z"/></clipPath><g clip-path="url(#_clip3)"><g><clipPath id="_clip4"><path d="M-18.747,105.733l251.567,-151.861l20.583,34.121l-251.567,151.86l-20.583,-34.12Z"/></clipPath><g clip-path="url(#_clip4)"><path d="M206.165,-28.174c-3.364,2.156 -6.755,4.259 -10.068,6.441c-3.575,2.365 -7.123,4.81 -10.646,7.281c-2.891,2.024 -5.704,4.127 -8.569,6.204c-2.603,1.866 -5.205,3.706 -7.781,5.625c-2.287,1.683 -4.522,3.418 -6.782,5.126c-2.103,1.578 -4.233,3.128 -6.336,4.732c-1.971,1.498 -3.89,3.023 -5.862,4.548c-1.892,1.445 -3.785,2.917 -5.651,4.39c-2.182,1.682 -4.338,3.391 -6.493,5.099c-1.788,1.42 -3.549,2.813 -5.31,4.232c-2.997,2.419 -5.994,4.864 -8.964,7.282c-2.445,1.972 -4.863,3.917 -7.255,5.915c-2.734,2.234 -5.442,4.468 -8.149,6.729c-3.05,2.524 -6.099,5.073 -9.148,7.623c-2.734,2.34 -5.494,4.679 -8.228,7.019c-3.496,2.997 -6.992,6.02 -10.462,9.043c-4.706,4.1 -9.411,8.201 -14.09,12.328c-4.416,3.917 -8.885,7.781 -13.249,11.777c-7.387,6.703 -14.747,13.406 -22.002,20.215c-6.046,5.625 -11.934,11.434 -17.928,17.139c-2.55,2.418 -5.205,4.731 -7.86,7.045c-0.447,0.394 -1.025,0.683 -1.603,0.815c-1.157,0.289 -2.182,-0.079 -2.892,-1.026c-0.683,-0.92 -0.736,-1.971 -0.184,-2.97c0.368,-0.631 0.815,-1.209 1.288,-1.735c3.891,-4.206 7.781,-8.386 11.698,-12.539c0.92,-0.973 2.05,-1.314 3.312,-0.788c0.5,0.21 0.815,0.078 1.183,-0.237c6.256,-5.52 12.539,-11.014 18.822,-16.508c5.888,-5.179 11.776,-10.384 17.691,-15.562c4.758,-4.154 9.516,-8.307 14.3,-12.434c3.549,-3.076 7.15,-6.099 10.725,-9.122c3.339,-2.839 6.677,-5.678 10.015,-8.49c3.549,-2.945 7.124,-5.862 10.699,-8.807c3.602,-2.996 7.229,-5.993 10.857,-8.963c2.55,-2.077 5.126,-4.101 7.676,-6.152c2.707,-2.155 5.362,-4.337 8.07,-6.466c2.287,-1.814 4.6,-3.575 6.887,-5.363c2.392,-1.892 4.784,-3.785 7.176,-5.625c1.946,-1.525 3.917,-2.997 5.889,-4.495c2.103,-1.604 4.179,-3.207 6.282,-4.811c1.577,-1.183 3.181,-2.366 4.784,-3.549c1.841,-1.393 3.707,-2.76 5.547,-4.127c1.761,-1.288 3.549,-2.576 5.31,-3.864c2.077,-1.498 4.153,-2.997 6.23,-4.469c1.183,-0.867 2.366,-1.708 3.575,-2.523c1.577,-1.078 3.181,-2.129 4.758,-3.181c3.417,-2.313 6.808,-4.679 10.278,-6.966c2.366,-1.551 4.811,-2.997 7.255,-4.495c2.971,-1.814 5.941,-3.654 8.991,-5.363c3.916,-2.234 7.912,-4.311 12.197,-5.678c1.156,-0.368 2.366,-0.552 3.575,-0.631c0.631,-0.052 1.314,0.237 1.945,0.5c0.473,0.21 0.736,0.683 0.447,1.209c-0.342,0.552 -0.789,0.447 -1.235,0.132c-0.789,-0.552 -1.657,-0.447 -2.471,-0.211c-1.735,0.526 -3.497,0.999 -5.153,1.735c-4.521,2.051 -8.858,4.39 -13.091,6.966Z" style="fill:#fff;fill-rule:nonzero;"/></g></g></g></g></g></g></g></g></g></svg>