<svg xmlns="http://www.w3.org/2000/svg" xmlns:xlink="http://www.w3.org/1999/xlink" width="50" zoomAndPan="magnify" viewBox="0 0 37.5 37.499999" height="50" preserveAspectRatio="xMidYMid meet" version="1.0"><defs><filter x="0%" y="0%" width="100%" height="100%" id="974591b300"><feColorMatrix values="0 0 0 0 1 0 0 0 0 1 0 0 0 0 1 0 0 0 1 0" color-interpolation-filters="sRGB"/></filter><g/><clipPath id="165a894ec6"><path d="M 16.011719 15.636719 L 16.125 15.636719 L 16.125 15.742188 L 16.011719 15.742188 Z M 16.011719 15.636719 " clip-rule="nonzero"/></clipPath><clipPath id="6d8c0b4630"><path d="M 16.121094 15.714844 C 15.90625 15.785156 16.097656 15.640625 16.097656 15.640625 " clip-rule="nonzero"/></clipPath><mask id="500d0f9dad"><g filter="url(#974591b300)"><rect x="-3.75" width="45" fill="#000000" y="-3.75" height="44.999999" fill-opacity="0.45"/></g></mask><clipPath id="a85f5f7a84"><path d="M 0.0117188 0.636719 L 0.125 0.636719 L 0.125 0.742188 L 0.0117188 0.742188 Z M 0.0117188 0.636719 " clip-rule="nonzero"/></clipPath><clipPath id="0901c72389"><path d="M 0.121094 0.714844 C -0.09375 0.785156 0.0976562 0.640625 0.0976562 0.640625 " clip-rule="nonzero"/></clipPath><clipPath id="09c2835972"><rect x="0" width="1" y="0" height="1"/></clipPath><clipPath id="7a60c824d4"><path d="M 16.089844 15.847656 L 16.480469 15.847656 L 16.480469 16 L 16.089844 16 Z M 16.089844 15.847656 " clip-rule="nonzero"/></clipPath><clipPath id="e43a1b6a1a"><path d="M 16.097656 16 C 16.335938 15.667969 16.480469 16 16.480469 16 " clip-rule="nonzero"/></clipPath><mask id="2e8eace7fe"><g filter="url(#974591b300)"><rect x="-3.75" width="45" fill="#000000" y="-3.75" height="44.999999" fill-opacity="0.45"/></g></mask><clipPath id="5d73e5d217"><path d="M 0.0898438 0.847656 L 0.480469 0.847656 L 0.480469 1 L 0.0898438 1 Z M 0.0898438 0.847656 " clip-rule="nonzero"/></clipPath><clipPath id="d1c4252429"><path d="M 0.0976562 1 C 0.335938 0.667969 0.480469 1 0.480469 1 " clip-rule="nonzero"/></clipPath><clipPath id="e82d5d1018"><rect x="0" width="1" y="0" height="1"/></clipPath><clipPath id="70a5473925"><path d="M 1 5 L 36 5 L 36 32 L 1 32 Z M 1 5 " clip-rule="nonzero"/></clipPath><clipPath id="97fcf41752"><path d="M -1.554688 27.070312 L 34.5625 5.269531 L 37.621094 10.335938 L 1.503906 32.140625 Z M -1.554688 27.070312 " clip-rule="nonzero"/></clipPath><clipPath id="97548bc54e"><path d="M -1.554688 27.070312 L 35.828125 4.503906 L 38.886719 9.574219 L 1.503906 32.140625 Z M -1.554688 27.070312 " clip-rule="nonzero"/></clipPath><clipPath id="5fead0d62e"><path d="M -1.554688 27.070312 L 35.828125 4.503906 L 38.886719 9.574219 L 1.503906 32.140625 Z M -1.554688 27.070312 " clip-rule="nonzero"/></clipPath><clipPath id="fd3c129050"><path d="M 36 6 L 37 6 L 37 8 L 36 8 Z M 36 6 " clip-rule="nonzero"/></clipPath><clipPath id="d0deb88b2d"><path d="M -1.554688 27.070312 L 34.5625 5.269531 L 37.621094 10.335938 L 1.503906 32.140625 Z M -1.554688 27.070312 " clip-rule="nonzero"/></clipPath><clipPath id="1461efde2f"><path d="M -1.554688 27.070312 L 35.828125 4.503906 L 38.886719 9.574219 L 1.503906 32.140625 Z M -1.554688 27.070312 " clip-rule="nonzero"/></clipPath><clipPath id="99d99e14fc"><path d="M -1.554688 27.070312 L 35.828125 4.503906 L 38.886719 9.574219 L 1.503906 32.140625 Z M -1.554688 27.070312 " clip-rule="nonzero"/></clipPath></defs><g fill="#ffffff" fill-opacity="1"><g transform="translate(11.490551, 26.821078)"><g><path d="M 1.15625 -14.34375 L 1.765625 -14.34375 L 1.765625 -5.640625 L 5.171875 -8.625 L 5.96875 -8.625 L 2.015625 -5.171875 L 6.953125 0 L 6.140625 0 L 1.765625 -4.546875 L 1.765625 0 L 1.15625 0 Z M 1.15625 -14.34375 "/></g></g></g><g clip-path="url(#165a894ec6)"><g clip-path="url(#6d8c0b4630)"><g mask="url(#500d0f9dad)"><g transform="matrix(1, 0, 0, 1, 16, 15)"><g clip-path="url(#09c2835972)"><g clip-path="url(#a85f5f7a84)"><g clip-path="url(#0901c72389)"><rect x="-24.25" width="54" fill="#ffffff" height="53.999999" y="-23.25" fill-opacity="1"/></g></g></g></g></g></g></g><g clip-path="url(#7a60c824d4)"><g clip-path="url(#e43a1b6a1a)"><g mask="url(#2e8eace7fe)"><g transform="matrix(1, 0, 0, 1, 16, 15)"><g clip-path="url(#e82d5d1018)"><g clip-path="url(#5d73e5d217)"><g clip-path="url(#d1c4252429)"><rect x="-24.25" width="54" fill="#ffffff" height="53.999999" y="-23.25" fill-opacity="1"/></g></g></g></g></g></g></g><g clip-path="url(#70a5473925)"><g clip-path="url(#97fcf41752)"><g clip-path="url(#97548bc54e)"><g clip-path="url(#5fead0d62e)"><path fill="#ffffff" d="M 31.867188 7.171875 C 31.367188 7.492188 30.863281 7.804688 30.371094 8.128906 C 29.839844 8.480469 29.3125 8.84375 28.789062 9.210938 C 28.359375 9.511719 27.941406 9.824219 27.515625 10.132812 C 27.128906 10.410156 26.742188 10.683594 26.359375 10.96875 C 26.019531 11.21875 25.6875 11.476562 25.351562 11.730469 C 25.039062 11.964844 24.722656 12.195312 24.410156 12.433594 C 24.117188 12.65625 23.832031 12.882812 23.539062 13.109375 C 23.257812 13.324219 22.976562 13.542969 22.699219 13.761719 C 22.375 14.011719 22.054688 14.265625 21.734375 14.519531 C 21.46875 14.730469 21.207031 14.9375 20.945312 15.148438 C 20.5 15.507812 20.054688 15.871094 19.613281 16.230469 C 19.25 16.523438 18.890625 16.8125 18.535156 17.109375 C 18.128906 17.441406 17.726562 17.773438 17.324219 18.109375 C 16.871094 18.484375 16.417969 18.863281 15.964844 19.242188 C 15.558594 19.589844 15.148438 19.9375 14.742188 20.285156 C 14.222656 20.730469 13.703125 21.179688 13.1875 21.628906 C 12.488281 22.238281 11.789062 22.847656 11.09375 23.460938 C 10.4375 24.042969 9.773438 24.617188 9.125 25.210938 C 8.027344 26.207031 6.933594 27.203125 5.855469 28.214844 C 4.957031 29.050781 4.082031 29.914062 3.191406 30.761719 C 2.8125 31.121094 2.417969 31.464844 2.023438 31.808594 C 1.957031 31.867188 1.871094 31.910156 1.785156 31.929688 C 1.613281 31.972656 1.460938 31.917969 1.355469 31.777344 C 1.253906 31.640625 1.246094 31.484375 1.328125 31.335938 C 1.382812 31.242188 1.449219 31.15625 1.519531 31.078125 C 2.097656 30.453125 2.675781 29.832031 3.257812 29.214844 C 3.394531 29.070312 3.5625 29.019531 3.75 29.097656 C 3.824219 29.128906 3.871094 29.109375 3.925781 29.0625 C 4.855469 28.242188 5.789062 27.425781 6.722656 26.609375 C 7.597656 25.839844 8.472656 25.066406 9.351562 24.296875 C 10.058594 23.679688 10.765625 23.0625 11.476562 22.449219 C 12.003906 21.992188 12.539062 21.542969 13.070312 21.09375 C 13.566406 20.671875 14.0625 20.25 14.558594 19.832031 C 15.085938 19.394531 15.617188 18.960938 16.148438 18.523438 C 16.683594 18.078125 17.222656 17.632812 17.761719 17.191406 C 18.140625 16.882812 18.523438 16.582031 18.902344 16.277344 C 19.304688 15.957031 19.699219 15.632812 20.101562 15.316406 C 20.441406 15.046875 20.785156 14.785156 21.125 14.519531 C 21.480469 14.238281 21.835938 13.957031 22.191406 13.683594 C 22.480469 13.457031 22.773438 13.238281 23.066406 13.015625 C 23.378906 12.777344 23.6875 12.539062 24 12.300781 C 24.234375 12.125 24.472656 11.949219 24.710938 11.773438 C 24.984375 11.566406 25.261719 11.363281 25.535156 11.160156 C 25.796875 10.96875 26.0625 10.777344 26.324219 10.585938 C 26.632812 10.363281 26.941406 10.140625 27.25 9.921875 C 27.425781 9.792969 27.601562 9.667969 27.78125 9.546875 C 28.015625 9.386719 28.253906 9.230469 28.488281 9.074219 C 28.996094 8.730469 29.5 8.378906 30.015625 8.039062 C 30.367188 7.808594 30.730469 7.59375 31.09375 7.371094 C 31.535156 7.101562 31.976562 6.828125 32.429688 6.574219 C 33.011719 6.242188 33.605469 5.933594 34.242188 5.730469 C 34.414062 5.675781 34.59375 5.648438 34.773438 5.636719 C 34.867188 5.628906 34.96875 5.671875 35.0625 5.710938 C 35.132812 5.742188 35.171875 5.8125 35.128906 5.890625 C 35.078125 5.972656 35.011719 5.957031 34.945312 5.910156 C 34.828125 5.828125 34.699219 5.84375 34.578125 5.878906 C 34.320312 5.957031 34.058594 6.027344 33.8125 6.136719 C 33.140625 6.441406 32.496094 6.789062 31.867188 7.171875 Z M 31.867188 7.171875 " fill-opacity="1" fill-rule="nonzero"/></g></g></g></g><g clip-path="url(#fd3c129050)"><g clip-path="url(#d0deb88b2d)"><g clip-path="url(#1461efde2f)"><g clip-path="url(#99d99e14fc)"><path fill="#ffffff" d="M 36.929688 6.414062 C 37.042969 6.605469 36.976562 6.851562 36.785156 6.960938 C 36.59375 7.074219 36.347656 7.007812 36.238281 6.816406 C 36.136719 6.636719 36.203125 6.386719 36.378906 6.28125 C 36.566406 6.167969 36.820312 6.230469 36.929688 6.414062 Z M 36.929688 6.414062 " fill-opacity="1" fill-rule="nonzero"/></g></g></g></g></svg>