<svg xmlns="http://www.w3.org/2000/svg" xmlns:xlink="http://www.w3.org/1999/xlink" width="100" zoomAndPan="magnify" viewBox="0 0 75 52.499999" height="70" preserveAspectRatio="xMidYMid meet" version="1.0"><defs><g/><clipPath id="fc7a0c2d56"><path d="M 13 4 L 62 4 L 62 47 L 13 47 Z M 13 4 " clip-rule="nonzero"/></clipPath><clipPath id="709482212f"><path d="M 8.890625 39.449219 L 61.148438 4 L 66.152344 11.378906 L 13.894531 46.824219 Z M 8.890625 39.449219 " clip-rule="nonzero"/></clipPath><clipPath id="3cdbf16d06"><path d="M 8.890625 39.449219 L 62.378906 3.164062 L 67.382812 10.542969 L 13.894531 46.824219 Z M 8.890625 39.449219 " clip-rule="nonzero"/></clipPath></defs><g clip-path="url(#fc7a0c2d56)"><g clip-path="url(#709482212f)"><g clip-path="url(#3cdbf16d06)"><path fill="#000000" d="M 56.71875 7.433594 C 56.007812 7.941406 55.289062 8.441406 54.585938 8.964844 C 53.828125 9.527344 53.078125 10.101562 52.335938 10.6875 C 51.722656 11.164062 51.128906 11.664062 50.527344 12.152344 C 49.980469 12.59375 49.425781 13.03125 48.882812 13.476562 C 48.402344 13.875 47.933594 14.285156 47.457031 14.6875 C 47.011719 15.058594 46.5625 15.425781 46.121094 15.800781 C 45.707031 16.152344 45.300781 16.511719 44.890625 16.871094 C 44.492188 17.214844 44.09375 17.554688 43.699219 17.898438 C 43.242188 18.300781 42.789062 18.699219 42.335938 19.101562 C 41.960938 19.433594 41.589844 19.761719 41.21875 20.097656 C 40.589844 20.664062 39.964844 21.234375 39.335938 21.800781 C 38.828125 22.261719 38.320312 22.722656 37.8125 23.183594 C 37.242188 23.710938 36.675781 24.234375 36.105469 24.761719 C 35.46875 25.359375 34.828125 25.953125 34.191406 26.550781 C 33.617188 27.09375 33.042969 27.640625 32.46875 28.191406 C 31.738281 28.890625 31.003906 29.59375 30.277344 30.304688 C 29.292969 31.261719 28.3125 32.21875 27.335938 33.183594 C 26.410156 34.09375 25.476562 35.003906 24.566406 35.929688 C 23.027344 37.492188 21.492188 39.054688 19.976562 40.640625 C 18.722656 41.953125 17.5 43.304688 16.253906 44.625 C 15.722656 45.191406 15.164062 45.730469 14.609375 46.273438 C 14.519531 46.359375 14.390625 46.433594 14.269531 46.46875 C 14.015625 46.542969 13.785156 46.472656 13.617188 46.269531 C 13.453125 46.074219 13.425781 45.84375 13.539062 45.617188 C 13.609375 45.472656 13.699219 45.335938 13.800781 45.214844 C 14.601562 44.246094 15.40625 43.277344 16.214844 42.316406 C 16.402344 42.085938 16.648438 42.003906 16.933594 42.109375 C 17.046875 42.148438 17.113281 42.117188 17.191406 42.039062 C 18.5 40.753906 19.8125 39.46875 21.125 38.183594 C 22.355469 36.976562 23.585938 35.761719 24.824219 34.550781 C 25.816406 33.582031 26.8125 32.609375 27.8125 31.644531 C 28.554688 30.929688 29.308594 30.222656 30.058594 29.511719 C 30.757812 28.847656 31.453125 28.183594 32.15625 27.527344 C 32.898438 26.835938 33.652344 26.152344 34.398438 25.464844 C 35.15625 24.765625 35.914062 24.058594 36.675781 23.363281 C 37.210938 22.875 37.753906 22.402344 38.289062 21.921875 C 38.855469 21.417969 39.414062 20.90625 39.980469 20.40625 C 40.460938 19.980469 40.949219 19.5625 41.433594 19.140625 C 41.9375 18.703125 42.433594 18.257812 42.9375 17.820312 C 43.351562 17.464844 43.765625 17.113281 44.179688 16.761719 C 44.621094 16.386719 45.058594 16.007812 45.503906 15.632812 C 45.835938 15.351562 46.171875 15.074219 46.507812 14.796875 C 46.898438 14.46875 47.289062 14.144531 47.679688 13.824219 C 48.054688 13.519531 48.429688 13.214844 48.800781 12.914062 C 49.238281 12.558594 49.675781 12.207031 50.113281 11.855469 C 50.363281 11.652344 50.617188 11.457031 50.871094 11.261719 C 51.203125 11.007812 51.542969 10.757812 51.875 10.503906 C 52.601562 9.953125 53.320312 9.394531 54.050781 8.855469 C 54.554688 8.488281 55.074219 8.136719 55.59375 7.785156 C 56.226562 7.351562 56.859375 6.914062 57.503906 6.5 C 58.339844 5.96875 59.191406 5.464844 60.121094 5.113281 C 60.371094 5.019531 60.636719 4.964844 60.902344 4.933594 C 61.039062 4.917969 61.195312 4.980469 61.335938 5.03125 C 61.445312 5.070312 61.503906 5.171875 61.449219 5.289062 C 61.382812 5.421875 61.28125 5.398438 61.175781 5.332031 C 61 5.222656 60.808594 5.25 60.632812 5.3125 C 60.257812 5.445312 59.871094 5.570312 59.515625 5.753906 C 58.550781 6.253906 57.621094 6.820312 56.71875 7.433594 Z M 56.71875 7.433594 " fill-opacity="1" fill-rule="nonzero"/></g></g></g><g fill="#000000" fill-opacity="1"><g transform="translate(0.353775, 36.204604)"><g><path d="M 1.75 -21.90625 L 2.6875 -21.90625 L 2.6875 -8.609375 L 7.90625 -13.171875 L 9.109375 -13.171875 L 3.078125 -7.90625 L 10.625 0 L 9.375 0 L 2.6875 -6.9375 L 2.6875 0 L 1.75 0 Z M 1.75 -21.90625 "/></g></g></g><g fill="#000000" fill-opacity="1"><g transform="translate(11.714313, 36.204604)"><g><path d="M 9.453125 -11.390625 C 8.597656 -12.242188 7.648438 -12.671875 6.609375 -12.671875 C 5.578125 -12.671875 4.664062 -12.28125 3.875 -11.5 C 3.082031 -10.726562 2.6875 -9.820312 2.6875 -8.78125 L 2.6875 0 L 1.75 0 L 1.75 -13.171875 L 2.6875 -13.171875 L 2.6875 -11.21875 C 3.039062 -11.875 3.585938 -12.414062 4.328125 -12.84375 C 5.078125 -13.28125 5.910156 -13.5 6.828125 -13.5 C 7.742188 -13.5 8.617188 -13.1875 9.453125 -12.5625 Z M 9.453125 -11.390625 "/></g></g></g><g fill="#000000" fill-opacity="1"><g transform="translate(21.903663, 36.204604)"><g><path d="M 8.34375 0.34375 L 8.078125 0.34375 C 6.222656 0.34375 4.609375 -0.347656 3.234375 -1.734375 C 1.859375 -3.128906 1.171875 -4.753906 1.171875 -6.609375 C 1.171875 -8.472656 1.851562 -10.082031 3.21875 -11.4375 C 4.582031 -12.789062 6.269531 -13.46875 8.28125 -13.46875 C 10.289062 -13.46875 12.019531 -12.664062 13.46875 -11.0625 L 4.28125 -1.984375 C 5.539062 -0.972656 6.753906 -0.46875 7.921875 -0.46875 C 9.097656 -0.46875 10.148438 -0.734375 11.078125 -1.265625 C 12.003906 -1.804688 12.769531 -2.523438 13.375 -3.421875 L 13.375 -1.9375 C 11.988281 -0.414062 10.3125 0.34375 8.34375 0.34375 Z M 8.03125 -12.65625 C 6.476562 -12.65625 5.101562 -12.050781 3.90625 -10.84375 C 2.707031 -9.644531 2.109375 -8.265625 2.109375 -6.703125 C 2.109375 -5.140625 2.625 -3.773438 3.65625 -2.609375 L 12.1875 -11.0625 C 10.96875 -12.125 9.582031 -12.65625 8.03125 -12.65625 Z M 8.03125 -12.65625 "/></g></g></g><g fill="#000000" fill-opacity="1"><g transform="translate(36.397134, 36.204604)"><g><path d="M 4.625 -12.703125 C 4.113281 -12.703125 3.660156 -12.535156 3.265625 -12.203125 C 2.878906 -11.878906 2.6875 -11.472656 2.6875 -10.984375 C 2.6875 -10.492188 2.90625 -10.039062 3.34375 -9.625 C 3.789062 -9.21875 4.320312 -8.84375 4.9375 -8.5 C 5.550781 -8.164062 6.171875 -7.800781 6.796875 -7.40625 C 7.421875 -7.019531 7.953125 -6.519531 8.390625 -5.90625 C 8.828125 -5.300781 9.046875 -4.609375 9.046875 -3.828125 C 9.046875 -2.679688 8.609375 -1.703125 7.734375 -0.890625 C 6.867188 -0.078125 5.820312 0.328125 4.59375 0.328125 C 3.8125 0.328125 3.082031 0.15625 2.40625 -0.1875 C 1.738281 -0.53125 1.25 -0.984375 0.9375 -1.546875 L 0.9375 -2.953125 C 1.675781 -1.316406 2.867188 -0.5 4.515625 -0.5 C 5.523438 -0.5 6.375 -0.8125 7.0625 -1.4375 C 7.757812 -2.0625 8.109375 -2.757812 8.109375 -3.53125 C 8.109375 -4.300781 7.890625 -4.945312 7.453125 -5.46875 C 7.015625 -6 6.484375 -6.445312 5.859375 -6.8125 C 5.234375 -7.1875 4.613281 -7.554688 4 -7.921875 C 3.382812 -8.285156 2.851562 -8.722656 2.40625 -9.234375 C 1.96875 -9.753906 1.75 -10.359375 1.75 -11.046875 C 1.75 -11.742188 2.023438 -12.332031 2.578125 -12.8125 C 3.140625 -13.289062 3.859375 -13.53125 4.734375 -13.53125 C 5.617188 -13.53125 6.375 -13.1875 7 -12.5 L 7 -11.296875 C 6.375 -12.234375 5.582031 -12.703125 4.625 -12.703125 Z M 4.625 -12.703125 "/></g></g></g><g fill="#000000" fill-opacity="1"><g transform="translate(46.469363, 36.204604)"><g><path d="M 1.75 -21.90625 L 2.6875 -21.90625 L 2.6875 -8.609375 L 7.90625 -13.171875 L 9.109375 -13.171875 L 3.078125 -7.90625 L 10.625 0 L 9.375 0 L 2.6875 -6.9375 L 2.6875 0 L 1.75 0 Z M 1.75 -21.90625 "/></g></g></g><g fill="#000000" fill-opacity="1"><g transform="translate(57.829901, 36.204604)"><g><path d="M 14.90625 -13.171875 L 14.90625 0 L 13.96875 0 L 13.96875 -3.28125 C 13.414062 -2.164062 12.59375 -1.285156 11.5 -0.640625 C 10.414062 0.00390625 9.25 0.328125 8 0.328125 C 6.082031 0.328125 4.441406 -0.347656 3.078125 -1.703125 C 1.710938 -3.066406 1.03125 -4.691406 1.03125 -6.578125 C 1.03125 -8.472656 1.710938 -10.097656 3.078125 -11.453125 C 4.441406 -12.816406 6.082031 -13.5 8 -13.5 C 9.25 -13.5 10.441406 -13.164062 11.578125 -12.5 C 12.722656 -11.832031 13.519531 -10.957031 13.96875 -9.875 L 13.96875 -13.171875 Z M 1.96875 -6.546875 C 1.96875 -4.910156 2.566406 -3.492188 3.765625 -2.296875 C 4.960938 -1.097656 6.382812 -0.5 8.03125 -0.5 C 9.6875 -0.5 11.097656 -1.097656 12.265625 -2.296875 C 13.441406 -3.492188 14.03125 -4.914062 14.03125 -6.5625 C 14.03125 -8.21875 13.4375 -9.648438 12.25 -10.859375 C 11.070312 -12.066406 9.660156 -12.671875 8.015625 -12.671875 C 6.378906 -12.671875 4.960938 -12.0625 3.765625 -10.84375 C 2.566406 -9.625 1.96875 -8.191406 1.96875 -6.546875 Z M 1.96875 -6.546875 "/></g></g></g></svg>